<svg width="48" height="48" viewBox="0 0 48 48" fill="none" xmlns="http://www.w3.org/2000/svg">
<path d="M1 24C1 11.2975 11.2975 1 24 1C36.7025 1 47 11.2975 47 24C47 36.7025 36.7025 47 24 47C11.2975 47 1 36.7025 1 24Z" fill="white" stroke="#3E3E3E" stroke-width="2"/>
<path d="M33.8057 22.042H32.9997V22H23.9997V26H29.6517C28.7737 28.493 26.3687 30.118 23.7287 30.004C21.0877 29.89 18.8327 28.063 18.1727 25.504C17.5137 22.945 18.6047 20.255 20.8607 18.879C23.1167 17.502 26.0067 17.762 27.9807 19.52L30.8097 16.691C27.3417 13.47 22.0907 13.124 18.2307 15.862C14.3707 18.6 12.9607 23.67 14.8547 28.007C16.7477 32.344 21.4247 34.758 26.0567 33.789C30.6887 32.819 34.0047 28.733 33.9997 24C33.9997 23.343 33.9347 22.687 33.8057 22.042Z" stroke="#3E3E3E" stroke-width="1.66667" stroke-linecap="round" stroke-linejoin="round"/>
<path d="M15.1566 19.365L18.4546 21.781C19.1846 19.965 20.7536 18.618 22.6596 18.171C24.5646 17.725 26.5696 18.235 28.0296 19.538L30.8686 16.701C28.5846 14.566 25.4346 13.62 22.3516 14.143C19.2696 14.666 16.6076 16.599 15.1566 19.368V19.365Z" stroke="#3E3E3E" stroke-width="1.66667" stroke-linecap="round" stroke-linejoin="round"/>
<path d="M24.0362 34.0001C26.5262 34.0001 28.9252 33.0711 30.7652 31.3941L27.6582 28.7671C26.1332 29.9221 24.1492 30.2821 22.3152 29.7361C20.4822 29.1891 19.0182 27.8011 18.3752 25.9991L15.1062 28.5211C16.8162 31.8811 20.2662 33.9981 24.0362 34.0001Z" stroke="#3E3E3E" stroke-width="1.66667" stroke-linecap="round" stroke-linejoin="round"/>
<path d="M33.805 21.9991H32.997V21.9581H23.965V25.9721H29.637C29.241 27.0841 28.528 28.0561 27.586 28.7671L30.692 31.3951C32.829 29.5221 34.037 26.8071 33.999 23.9651C33.999 23.3051 33.934 22.6471 33.805 21.9991Z" stroke="#3E3E3E" stroke-width="1.66667" stroke-linecap="round" stroke-linejoin="round"/>
</svg>
