<svg width="48" height="48" viewBox="0 0 48 48" fill="none" xmlns="http://www.w3.org/2000/svg">
<path d="M1 24C1 11.2975 11.2975 1 24 1C36.7025 1 47 11.2975 47 24C47 36.7025 36.7025 47 24 47C11.2975 47 1 36.7025 1 24Z" fill="white" stroke="#3E3E3E" stroke-width="2"/>
<path d="M27.333 20.667C30.095 20.667 32.333 22.905 32.333 25.667V31.5H29V25.667C29 24.746 28.254 24 27.333 24C26.413 24 25.667 24.746 25.667 25.667V31.5H22.333V25.667C22.333 22.905 24.572 20.667 27.333 20.667Z" stroke="#3E3E3E" stroke-width="1.66667" stroke-linecap="round" stroke-linejoin="round"/>
<rect x="15.6666" y="21.5" width="3.33333" height="10" stroke="#3E3E3E" stroke-width="1.66667" stroke-linecap="round" stroke-linejoin="round"/>
<circle cx="17.3333" cy="17.3334" r="1.66667" stroke="#3E3E3E" stroke-width="1.66667" stroke-linecap="round" stroke-linejoin="round"/>
</svg>
