<svg width="48" height="48" viewBox="0 0 48 48" fill="none" xmlns="http://www.w3.org/2000/svg">
<path d="M1 24C1 11.2975 11.2975 1 24 1C36.7025 1 47 11.2975 47 24C47 36.7025 36.7025 47 24 47C11.2975 47 1 36.7025 1 24Z" fill="white" stroke="#3E3E3E" stroke-width="2"/>
<path d="M33.167 16.5C32.369 17.063 31.485 17.493 30.55 17.775C29.522 16.593 27.865 16.178 26.402 16.737C24.938 17.296 23.979 18.709 24 20.275V21.108C21.026 21.185 18.21 19.768 16.5 17.333C16.5 17.333 13.167 24.833 20.667 28.167C18.95 29.332 16.906 29.916 14.833 29.833C22.333 34 31.5 29.833 31.5 20.25C31.499 20.018 31.477 19.786 31.433 19.558C32.284 18.72 32.884 17.661 33.167 16.5Z" stroke="#3E3E3E" stroke-width="1.66667" stroke-linecap="round" stroke-linejoin="round"/>
</svg>
